<?xml version="1.0" standalone="no"?>
<!DOCTYPE svg PUBLIC "-//W3C//DTD SVG 20010904//EN"
 "http://www.w3.org/TR/2001/REC-SVG-20010904/DTD/svg10.dtd">
<svg version="1.0" xmlns="http://www.w3.org/2000/svg"
 width="300.000000pt" height="300.000000pt" viewBox="0 0 300.000000 300.000000"
 preserveAspectRatio="xMidYMid meet">
<metadata>
Created by potrace 1.10, written by Peter Selinger 2001-2011
</metadata>
<g transform="translate(0.000000,300.000000) scale(0.100000,-0.100000)"
fill="#000000" stroke="none">
<path d="M137 2675 c-21 -21 -21 -22 6 -69 l22 -40 80 -4 c103 -6 226 -5 342
1 51 3 95 2 98 -2 4 -7 153 -8 323 -3 51 2 54 3 68 39 15 34 14 38 -4 62 l-19
26 -364 -1 c-200 0 -380 -2 -399 -3 -19 -2 -58 0 -86 4 -41 6 -53 4 -67 -10z
m83 -25 c0 -5 -7 -10 -15 -10 -10 0 -15 -10 -15 -30 0 -16 -4 -30 -10 -30 -5
0 -10 14 -10 30 0 19 -5 30 -14 30 -8 0 -18 5 -21 10 -4 6 12 10 39 10 25 0
46 -4 46 -10z m24 -5 c-5 -11 1 -15 20 -15 16 0 26 6 26 15 0 8 5 15 10 15 6
0 10 -18 10 -40 0 -22 -4 -40 -10 -40 -5 0 -10 7 -10 15 0 9 -9 15 -25 15 -18
0 -23 -4 -19 -15 4 -10 0 -15 -11 -15 -12 0 -15 5 -11 16 3 9 6 27 6 40 0 13
4 24 10 24 5 0 7 -7 4 -15z m156 5 c0 -5 -13 -10 -30 -10 -16 0 -30 -4 -30 -9
0 -4 11 -6 25 -3 14 2 25 0 25 -6 0 -6 -12 -13 -27 -15 -26 -4 -26 -4 5 -6 17
0 32 -6 32 -12 0 -6 -16 -9 -37 -7 -36 3 -38 5 -41 41 l-3 37 40 0 c23 0 41
-4 41 -10z m90 -30 c0 -22 -4 -40 -10 -40 -5 0 -10 5 -10 10 0 6 -9 10 -20 10
-11 0 -20 -4 -20 -10 0 -5 -4 -10 -10 -10 -14 0 -12 54 2 68 7 7 25 12 40 12
26 0 28 -3 28 -40z m274 18 c17 -27 -4 -52 -48 -56 -35 -3 -36 -2 -36 31 0 30
-3 34 -20 30 -15 -4 -18 -11 -13 -34 4 -22 2 -29 -10 -29 -13 0 -15 7 -11 29
5 23 2 30 -12 33 -23 4 -45 -31 -31 -49 14 -19 -9 -16 -40 4 -26 17 -27 17
-20 0 4 -10 2 -17 -6 -17 -9 0 -11 13 -9 40 l4 39 120 -2 c103 -2 122 -5 132
-19z m95 5 c9 -17 11 -17 23 0 10 13 24 18 43 15 27 -3 30 -7 30 -38 0 -31 -3
-35 -28 -38 -17 -2 -36 3 -47 13 -16 15 -18 15 -24 0 -4 -11 -16 -15 -38 -13
-26 2 -34 8 -36 26 -2 13 -1 30 2 38 8 20 63 18 75 -3z m201 -2 c0 -11 -5 -23
-11 -27 -8 -4 -8 -9 0 -17 22 -22 10 -28 -19 -10 -35 20 -39 33 -10 33 11 0
20 5 20 10 0 6 -11 10 -25 10 -21 0 -25 -5 -25 -30 0 -16 -5 -30 -11 -30 -6 0
-8 7 -5 16 3 9 6 27 6 40 0 21 4 24 40 24 33 0 40 -3 40 -19z"/>
<path d="M700 2620 c0 -15 7 -20 25 -20 18 0 25 5 25 20 0 15 -7 20 -25 20
-18 0 -25 -5 -25 -20z"/>
<path d="M797 2633 c-17 -16 -5 -33 23 -33 23 0 30 4 30 20 0 14 -7 20 -23 20
-13 0 -27 -3 -30 -7z"/>
<path d="M890 2620 c0 -17 5 -21 28 -18 16 2 27 9 27 18 0 9 -11 16 -27 18
-23 3 -28 -1 -28 -18z"/>
<path d="M140 1895 l0 -255 106 0 106 0 -7 28 c-14 58 -18 115 -6 108 6 -4 11
-14 11 -23 0 -8 12 -37 27 -64 l26 -49 94 0 c51 0 93 4 93 9 0 5 17 3 38 -4
42 -14 282 -9 282 6 0 5 12 3 28 -5 39 -20 292 -10 292 12 0 12 4 12 25 -2 40
-26 107 -31 166 -12 36 12 54 14 59 6 4 -7 78 -10 235 -8 l228 3 12 35 c10 31
16 35 45 35 29 0 35 -4 45 -35 l12 -35 149 -3 149 -2 -4 87 -3 87 23 -16 c13
-8 27 -30 30 -48 10 -46 39 -82 84 -104 34 -17 45 -18 92 -8 38 8 62 8 81 1
36 -14 121 -3 161 22 56 34 75 109 45 173 -16 33 -16 36 8 79 l26 45 -51 21
c-65 28 -115 35 -158 24 -19 -5 -46 -7 -61 -5 -26 3 -28 7 -28 48 l0 44 -100
0 -100 0 0 -43 0 -43 -122 -3 c-77 -1 -124 -6 -127 -13 -2 -6 -18 27 -36 73
l-32 84 -83 0 -82 0 -39 -95 c-21 -52 -40 -99 -42 -105 -2 -5 -16 2 -30 16
-40 39 -82 47 -211 41 -89 -4 -116 -8 -116 -18 0 -8 10 -14 21 -14 18 0 19 -2
9 -15 -16 -19 -30 -19 -30 0 0 45 -152 67 -218 31 -19 -9 -36 -15 -39 -12 -3
2 1 20 7 38 11 29 10 40 -5 72 -33 70 -123 86 -175 31 -22 -23 -31 -25 -112
-25 l-89 0 7 -45 6 -46 -115 3 c-83 2 -120 -1 -128 -9 -28 -28 -34 -13 -30 72
l3 85 -106 0 -106 0 0 -35 c0 -19 5 -46 12 -60 9 -19 9 -28 0 -37 -9 -9 -12
-9 -13 0 -2 21 -4 26 -32 80 l-27 52 -90 0 -90 0 0 -255z m220 76 l75 -120 3
120 3 119 44 0 45 0 0 -196 0 -195 -47 3 -48 3 -71 112 c-39 62 -73 115 -76
118 -3 3 -3 -49 0 -115 l5 -120 -47 0 -46 0 0 195 0 195 43 0 42 0 75 -119z
m802 102 c22 -20 23 -41 1 -65 -33 -37 -83 -17 -83 34 0 44 48 62 82 31z m957
-181 l78 -193 -50 3 c-48 3 -51 5 -62 38 l-12 35 -75 3 -75 3 -12 -41 c-12
-40 -12 -40 -60 -40 l-49 0 72 178 c40 97 75 185 79 195 5 14 16 17 48 15 l41
-3 77 -193z m-1119 93 c0 -41 2 -45 25 -45 21 0 25 -5 25 -30 0 -25 -4 -30
-25 -30 -24 0 -25 -3 -25 -55 0 -47 3 -55 19 -55 12 0 23 -11 29 -30 9 -25 8
-31 -8 -40 -31 -17 -67 -11 -97 14 -25 22 -28 31 -30 93 -1 53 -5 69 -17 71
-24 5 -22 62 3 62 16 0 18 6 13 45 l-5 45 47 0 46 0 0 -45z m1540 0 c0 -41 2
-45 25 -45 22 0 25 -4 25 -34 0 -30 -2 -33 -25 -28 -24 4 -25 2 -25 -47 0 -45
3 -53 24 -61 21 -8 44 -55 32 -67 -2 -3 -22 -7 -44 -10 -34 -5 -45 -1 -66 20
-23 23 -26 34 -26 97 0 63 -2 70 -20 70 -14 0 -20 7 -20 23 -1 20 -3 19 -18
-9 -14 -25 -21 -30 -37 -24 -30 11 -64 -6 -71 -35 -3 -14 -4 -50 -2 -80 l5
-55 -44 0 -43 0 0 120 0 120 40 0 c31 0 40 -4 40 -17 0 -14 2 -14 21 3 17 15
34 19 85 17 l64 -3 0 45 0 45 40 0 40 0 0 -45z m-1318 -47 c-6 -6 -15 -2 -26
13 -12 17 -13 25 -4 30 16 10 44 -29 30 -43z m968 25 c-1 -5 -7 -19 -14 -32
-13 -24 -14 -24 -25 -3 -17 32 -13 42 14 42 14 0 25 -3 25 -7z m-1456 -28 c33
-18 39 -19 31 -5 -4 6 12 10 39 10 l46 0 0 -120 0 -120 -45 0 c-38 0 -43 2
-38 18 6 16 5 16 -13 0 -49 -43 -140 -25 -169 33 -34 65 -10 154 49 183 39 20
64 20 100 1z m705 -12 c37 -28 64 -86 56 -123 -16 -71 -90 -118 -167 -106 -98
16 -146 103 -102 187 33 64 151 87 213 42z m321 -2 c23 -17 25 -25 28 -120 l3
-101 -41 0 -40 0 0 78 c0 82 -9 102 -45 102 -36 0 -45 -20 -45 -102 l0 -78
-45 0 -45 0 0 120 0 120 45 0 c25 0 45 -4 45 -9 0 -6 12 -3 28 5 32 17 76 12
112 -15z m1043 10 c4 -4 3 -20 -4 -34 -9 -21 -15 -24 -30 -17 -26 14 -59 12
-59 -4 0 -7 20 -21 45 -31 68 -25 84 -72 43 -120 -30 -33 -99 -43 -151 -21
l-38 15 16 31 c9 17 19 30 23 28 4 -2 19 -10 35 -18 22 -11 30 -11 40 -1 9 10
8 15 -7 25 -86 52 -94 63 -82 112 9 35 59 56 116 49 24 -3 48 -9 53 -14z
m-1633 -111 l0 -120 -45 0 -45 0 0 120 0 120 45 0 45 0 0 -120z m520 -142 c0
-5 -11 -8 -25 -8 -28 0 -30 3 -13 29 11 18 13 18 25 3 7 -9 13 -20 13 -24z"/>
<path d="M1977 1911 c-9 -27 -17 -51 -17 -55 0 -3 18 -6 40 -6 22 0 40 3 40 6
0 13 -35 104 -40 104 -3 0 -13 -22 -23 -49z"/>
<path d="M674 1855 c-19 -19 -23 -31 -18 -48 9 -33 20 -40 54 -40 34 0 45 7
54 40 5 17 1 29 -18 48 -14 14 -30 25 -36 25 -6 0 -22 -11 -36 -25z"/>
<path d="M1322 1864 c-42 -29 -17 -104 35 -104 20 0 53 38 53 60 0 22 -33 60
-53 60 -7 0 -23 -7 -35 -16z"/>
<path d="M782 1489 c-39 -12 -72 -60 -72 -106 l0 -33 -72 0 -73 0 -16 39 c-9
21 -33 51 -54 67 -38 28 -41 29 -182 32 l-143 3 0 -250 0 -251 105 0 105 0 0
68 0 68 43 12 c23 7 47 15 52 17 6 3 9 -26 6 -80 l-3 -85 104 0 104 0 -3 86
c-4 83 -3 85 17 74 17 -9 20 -20 20 -85 l0 -75 335 0 c205 0 335 4 335 9 0 6
16 3 35 -5 72 -30 184 -5 219 48 13 20 14 31 5 56 -7 22 -7 36 0 51 15 27 13
102 -2 121 -7 8 -19 16 -27 18 -23 5 -43 29 -36 41 11 17 28 12 65 -19 l35
-29 0 -103 c1 -57 -3 -122 -8 -145 l-9 -43 442 0 c271 0 441 4 441 9 0 6 16 3
35 -5 50 -21 114 -18 165 9 53 26 127 117 106 129 -7 4 -13 26 -13 51 -2 97
-74 166 -178 169 -49 2 -78 -6 -110 -28 l-38 -25 -21 20 c-31 30 -95 41 -141
25 -28 -9 -44 -10 -58 -2 -11 5 -61 10 -111 9 -85 -1 -92 -3 -112 -28 -14 -18
-23 -23 -28 -15 -9 15 1 32 19 32 39 0 27 100 -15 132 -31 22 -26 22 -275 20
l-200 -2 3 -74 3 -73 -73 4 c-66 5 -77 3 -111 -21 l-38 -26 -28 21 c-37 27
-88 37 -131 27 -19 -5 -42 -8 -50 -7 -8 1 -63 2 -122 3 l-108 1 6 32 c8 41
-19 87 -62 108 -36 17 -36 17 -82 4z m-319 -81 c36 -24 51 -83 35 -134 -18
-52 -66 -84 -129 -84 l-49 0 0 -73 0 -72 -45 3 -45 4 0 192 0 191 103 -5 c75
-4 110 -10 130 -22z m388 13 c20 -16 22 -23 14 -47 -18 -52 -95 -42 -95 12 0
20 32 54 51 54 4 0 17 -9 30 -19z m1059 -28 l0 -41 -46 1 -46 2 2 -151 1 -152
-46 -4 -45 -3 0 158 0 159 -47 -4 -48 -3 -1 35 c0 19 1 37 2 40 1 3 63 5 138
5 l136 0 0 -42z m102 30 c21 -18 24 -53 6 -71 -19 -19 -66 -15 -78 7 -14 28
-13 38 10 61 24 24 38 25 62 3z m-1098 -88 c3 -9 -3 -19 -14 -25 -21 -11 -25
-4 -14 24 8 20 20 21 28 1z m1000 -32 c-14 -30 -17 -243 -3 -259 16 -19 8 -26
-33 -27 -28 -2 -32 1 -29 18 2 11 6 77 8 147 4 109 7 127 21 131 37 10 44 7
36 -10z m-1165 -20 c3 -2 -3 -18 -11 -37 -14 -29 -20 -32 -47 -28 -50 7 -61
-10 -61 -94 l0 -74 -45 0 -45 0 0 120 0 120 46 0 c37 0 45 -3 40 -15 -6 -17 9
-21 19 -4 15 23 82 31 104 12z m386 -14 c20 -18 21 -18 42 2 23 24 77 28 112
9 32 -16 41 -50 41 -146 l0 -84 -45 0 -45 0 0 79 c0 85 -12 108 -49 96 -26 -8
-34 -40 -29 -115 l4 -58 -43 -4 -42 -3 -3 84 c-2 67 -7 86 -20 95 -13 8 -23 8
-35 0 -14 -9 -19 -28 -21 -95 l-3 -84 -39 3 -40 4 0 119 0 119 40 0 c31 0 40
-4 40 -17 0 -14 2 -15 18 -1 36 32 81 30 117 -3z m458 -19 c18 -20 27 -41 27
-63 l0 -32 -85 4 c-68 2 -85 0 -85 -11 0 -8 5 -19 12 -26 15 -15 70 -16 84 -2
11 11 74 -6 74 -20 0 -21 -66 -54 -114 -58 -66 -5 -115 25 -135 84 -17 49 -10
84 27 125 50 56 144 56 195 -1z m711 16 c8 -12 14 -11 35 4 44 32 92 30 126
-5 23 -22 25 -31 25 -122 l0 -99 -40 4 -40 4 0 73 c0 74 -13 105 -44 105 -27
0 -36 -26 -36 -102 l0 -78 -45 0 -45 0 0 78 c0 80 -9 102 -42 102 -28 0 -40
-37 -36 -110 l4 -68 -43 -4 -43 -3 0 122 0 123 40 0 c31 0 40 -4 40 -17 0 -15
2 -15 18 -1 9 9 26 18 37 20 28 6 78 -9 89 -26z m428 9 c25 -10 47 -49 50 -86
l3 -33 -87 3 c-70 2 -88 0 -88 -11 0 -8 5 -19 12 -26 15 -15 70 -16 85 -1 9 9
20 9 43 -1 35 -15 35 -26 -4 -54 -42 -32 -135 -30 -171 4 -65 59 -66 146 -2
194 45 34 95 38 159 11z m-1872 -108 l0 -122 -42 3 -43 4 3 119 3 119 40 0 39
0 0 -123z m1162 4 l3 -119 -42 -4 -43 -3 0 122 0 123 39 0 40 0 3 -119z"/>
<path d="M320 1310 c0 -47 2 -50 26 -50 41 0 64 18 64 48 0 37 -17 52 -57 52
-33 0 -33 0 -33 -50z"/>
<path d="M1462 1228 c-21 -21 -13 -28 33 -28 25 0 45 4 45 8 0 15 -24 32 -45
32 -12 0 -26 -5 -33 -12z"/>
<path d="M2620 1225 c-18 -22 -9 -27 46 -23 46 3 47 4 30 21 -22 21 -59 22
-76 2z"/>
</g>
</svg>
